<svg width="97" height="97" viewBox="0 0 97 97" fill="none" xmlns="http://www.w3.org/2000/svg">
<path fill-rule="evenodd" clip-rule="evenodd" d="M26.3078 33.5911C21.9961 53.231 20.8237 76.6635 36.7409 84.3407C52.6581 92.0179 65.308 78.103 76.3049 62.7069C87.3018 47.3109 78.1979 25.8054 62.2807 18.1282C46.3635 10.451 30.6168 13.9463 26.3078 33.5911Z" fill="#F5F5F5"/>
<path fill-rule="evenodd" clip-rule="evenodd" d="M31.8495 46.2825C32.4917 46.3045 33.0303 45.8015 33.0524 45.1593L33.1714 41.6884C33.1733 41.626 33.2256 41.577 33.288 41.5789C33.337 41.5809 33.386 41.5794 33.4349 41.5746L37.4396 41.206C37.4852 41.2223 37.5173 41.2665 37.5159 41.3169L37.3959 44.8189C37.3738 45.4612 37.8773 46.0002 38.5196 46.0218C39.1613 46.0439 39.7004 45.5409 39.7224 44.8986L39.842 41.3965C39.888 40.0516 38.8311 38.9197 37.4856 38.8737C37.4372 38.8722 37.3882 38.8732 37.3397 38.878L33.2828 39.2514C31.9752 39.2514 30.8895 40.2921 30.8444 41.6087L30.7258 45.0796C30.7037 45.7218 31.2068 46.2609 31.8495 46.2825Z" fill="white"/>
<path d="M31.8495 46.2825C32.4917 46.3045 33.0303 45.8015 33.0524 45.1593L33.1714 41.6884C33.1733 41.626 33.2256 41.577 33.288 41.5789C33.337 41.5809 33.386 41.5794 33.4349 41.5746L37.4396 41.206C37.4852 41.2223 37.5173 41.2665 37.5159 41.3169L37.3959 44.8189C37.3738 45.4612 37.8773 46.0002 38.5196 46.0218C39.1613 46.0439 39.7004 45.5409 39.7224 44.8986L39.842 41.3965C39.888 40.0516 38.8311 38.9197 37.4856 38.8737C37.4372 38.8722 37.3882 38.8732 37.3397 38.878L33.2828 39.2514C31.9752 39.2514 30.8895 40.2921 30.8444 41.6087L30.7258 45.0796C30.7037 45.7218 31.2068 46.2609 31.8495 46.2825" stroke="#C1C1C1" stroke-width="1.25" stroke-linecap="round" stroke-linejoin="round"/>
<path fill-rule="evenodd" clip-rule="evenodd" d="M25.3534 45.4508C25.9961 45.4729 26.5347 44.9699 26.5568 44.3276L26.6753 40.8568C26.6777 40.7944 26.73 40.7454 26.7924 40.7473C26.8414 40.7492 26.8899 40.7478 26.9388 40.743L30.9435 40.3744C30.9891 40.3907 31.0217 40.4348 31.0198 40.4852L30.9003 43.9873C30.8782 44.6296 31.3812 45.1681 32.0235 45.1902C32.6657 45.2123 33.2043 44.7092 33.2264 44.067L33.3464 40.5649C33.3924 39.22 32.3355 38.0881 30.99 38.0416C30.9416 38.0401 30.8921 38.0416 30.8436 38.0459L26.7867 38.4193C25.4796 38.4198 24.3939 39.4604 24.3488 40.7771L24.2302 44.248C24.2081 44.8902 24.7112 45.4288 25.3534 45.4508Z" fill="white"/>
<path d="M25.3534 45.4508C25.9961 45.4729 26.5347 44.9699 26.5568 44.3276L26.6753 40.8568C26.6777 40.7944 26.73 40.7454 26.7924 40.7473C26.8414 40.7492 26.8899 40.7478 26.9388 40.743L30.9435 40.3744C30.9891 40.3907 31.0217 40.4348 31.0198 40.4852L30.9003 43.9873C30.8782 44.6296 31.3812 45.1681 32.0235 45.1902C32.6657 45.2123 33.2043 44.7092 33.2264 44.067L33.3464 40.5649C33.3924 39.22 32.3355 38.0881 30.99 38.0416C30.9416 38.0401 30.8921 38.0416 30.8436 38.0459L26.7867 38.4193C25.4796 38.4198 24.3939 39.4604 24.3488 40.7771L24.2302 44.248C24.2081 44.8902 24.7112 45.4288 25.3534 45.4508" stroke="#C1C1C1" stroke-width="1.25" stroke-linecap="round" stroke-linejoin="round"/>
<path fill-rule="evenodd" clip-rule="evenodd" d="M17.7109 68.5547L36.6321 71.0147L36.6681 43.4497L19.8949 44.4625L17.7109 68.5547Z" fill="#FAFAFA" stroke="#C1C1C1" stroke-width="1.25" stroke-linecap="round" stroke-linejoin="round"/>
<path fill-rule="evenodd" clip-rule="evenodd" d="M36.6323 71.0147L44.2624 68.8854L42.4854 44.9982L36.6683 43.4497L36.6323 71.0147Z" fill="#FAFAFA" stroke="#C1C1C1" stroke-width="1.25" stroke-linecap="round" stroke-linejoin="round"/>
<path fill-rule="evenodd" clip-rule="evenodd" d="M59.392 36.8534C58.4493 36.8855 57.6588 36.1473 57.6261 35.2046L57.4524 30.1108C57.449 30.0191 57.3722 29.9471 57.2805 29.9505C57.2085 29.9529 57.137 29.9505 57.0655 29.9442L51.1874 29.4033C51.1207 29.4263 51.0736 29.4916 51.076 29.5655L51.2517 34.7054C51.2839 35.6481 50.5456 36.4386 49.6024 36.4708C48.6602 36.5034 47.8692 35.7647 47.8375 34.822L47.6618 29.6826C47.5941 27.7084 49.145 26.0471 51.1197 25.9794C51.1912 25.977 51.2632 25.9794 51.3348 25.9857L57.2882 26.5338C59.2072 26.5338 60.8008 28.0612 60.8666 29.9937L61.0413 35.0879C61.073 36.0306 60.3348 36.8212 59.392 36.8534Z" fill="white"/>
<path d="M59.392 36.8534C58.4493 36.8855 57.6588 36.1473 57.6261 35.2046L57.4524 30.1108C57.449 30.0191 57.3722 29.9471 57.2805 29.9505C57.2085 29.9529 57.137 29.9505 57.0655 29.9442L51.1874 29.4033C51.1207 29.4263 51.0736 29.4916 51.076 29.5655L51.2517 34.7054C51.2839 35.6481 50.5456 36.4386 49.6024 36.4708C48.6602 36.5034 47.8692 35.7647 47.8375 34.822L47.6618 29.6826C47.5941 27.7084 49.145 26.0471 51.1197 25.9794C51.1912 25.977 51.2632 25.9794 51.3348 25.9857L57.2882 26.5338C59.2072 26.5338 60.8008 28.0612 60.8666 29.9937L61.0413 35.0879C61.073 36.0306 60.3348 36.8212 59.392 36.8534" stroke="#C1C1C1" stroke-width="1.25" stroke-linecap="round" stroke-linejoin="round"/>
<path fill-rule="evenodd" clip-rule="evenodd" d="M68.9262 35.6327C67.983 35.6649 67.1929 34.9266 67.1603 33.9839L66.9861 28.8902C66.9827 28.7985 66.9059 28.7265 66.8147 28.7298C66.7427 28.7322 66.6712 28.7298 66.5992 28.7231L60.7216 28.1826C60.6549 28.2057 60.6073 28.2705 60.6102 28.3449L60.7859 33.4842C60.8176 34.4274 60.0793 35.218 59.1366 35.2502C58.1944 35.2823 57.4033 34.5441 57.3712 33.6014L57.1955 28.462C57.1278 26.4878 58.6792 24.8265 60.6539 24.7588C60.7254 24.7564 60.7969 24.7583 60.8685 24.765L66.8219 25.3132C68.7414 25.3132 70.3345 26.8406 70.4003 28.773L70.575 33.8668C70.6072 34.81 69.8689 35.6006 68.9262 35.6327Z" fill="white"/>
<path d="M68.9262 35.6327C67.983 35.6649 67.1929 34.9266 67.1603 33.9839L66.9861 28.8902C66.9827 28.7985 66.9059 28.7265 66.8147 28.7298C66.7427 28.7322 66.6712 28.7298 66.5992 28.7231L60.7216 28.1826C60.6549 28.2057 60.6073 28.2705 60.6102 28.3449L60.7859 33.4842C60.8176 34.4274 60.0793 35.218 59.1366 35.2502C58.1944 35.2823 57.4033 34.5441 57.3712 33.6014L57.1955 28.462C57.1278 26.4878 58.6792 24.8265 60.6539 24.7588C60.7254 24.7564 60.7969 24.7583 60.8685 24.765L66.8219 25.3132C68.7414 25.3132 70.3345 26.8406 70.4003 28.773L70.575 33.8668C70.6072 34.81 69.8689 35.6006 68.9262 35.6327" stroke="#C1C1C1" stroke-width="1.25" stroke-linecap="round" stroke-linejoin="round"/>
<path fill-rule="evenodd" clip-rule="evenodd" d="M80.1421 69.5406L52.3721 73.1511L52.3193 32.6953L76.9371 34.1814L80.1421 69.5406Z" fill="white" stroke="#C1C1C1" stroke-width="1.25" stroke-linecap="round" stroke-linejoin="round"/>
<path fill-rule="evenodd" clip-rule="evenodd" d="M52.3722 73.1511L41.1738 70.0263L43.0775 35.6723L47.3265 35.6339L52.3194 32.6953L52.3722 73.1511Z" fill="white" stroke="#C1C1C1" stroke-width="1.25" stroke-linecap="round" stroke-linejoin="round"/>
<path fill-rule="evenodd" clip-rule="evenodd" d="M47.3266 35.6338L46.1338 67.956L47.3266 35.6338Z" fill="white"/>
<path d="M47.3266 35.6338L46.1338 67.956" stroke="#C1C1C1" stroke-width="1.25" stroke-linecap="round" stroke-linejoin="round"/>
<path d="M29.3917 62.3617C29.3917 63.0538 28.8727 63.6394 28.1806 63.6394C27.5132 63.6128 26.9941 63.0538 26.9941 62.3617C26.9941 61.643 27.5132 61.084 28.2053 61.084C28.8727 61.084 29.3917 61.643 29.3917 62.3617Z" fill="#E4E4E4"/>
<path fill-rule="evenodd" clip-rule="evenodd" d="M31.616 56.3462L31.7149 56.1598C32.2587 55.3613 32.5306 54.4296 32.5553 53.4447C32.58 50.8627 30.6273 48.7598 28.2297 48.7598C25.8321 48.7598 23.8794 50.8627 23.8794 53.4447C23.8794 54.403 24.176 55.3613 24.6951 56.1598L24.8187 56.3462L27.068 59.78C27.068 59.78 27.3399 60.2592 27.9578 60.2592H28.1308H28.3533H28.4769C29.0948 60.2592 29.3667 59.78 29.3667 59.78L31.616 56.3462ZM26.0051 53.4182C26.0051 52.1138 26.9938 51.0491 28.205 51.0491C29.4162 51.0491 30.4049 52.1138 30.4049 53.4182C30.4049 53.9239 30.2566 54.4031 29.9847 54.8023L29.8611 54.9887L28.205 57.5175L26.5489 54.9887L26.4253 54.8023C26.1534 54.4031 26.0051 53.9239 26.0051 53.4182Z" fill="#E4E4E4"/>
<path d="M67.5097 60.7558C67.5776 61.7272 66.9065 62.6001 65.9351 62.668C64.9958 62.6962 64.2124 61.9625 64.1444 60.9911C64.0739 59.9823 64.7476 59.1468 65.719 59.0789C66.6557 59.0134 67.4391 59.747 67.5097 60.7558Z" fill="#E4E4E4"/>
<path fill-rule="evenodd" clip-rule="evenodd" d="M70.0415 52.0933L70.162 51.8221C70.8468 50.6479 71.137 49.3135 71.075 47.9287C70.8563 44.3022 67.9092 41.5423 64.544 41.7776C61.1787 42.0129 58.6444 45.1562 58.8978 48.7802C58.9919 50.1253 59.5022 51.4412 60.3092 52.5111L60.5009 52.7605L63.995 57.3594C63.995 57.3594 64.4236 58.0052 65.291 57.9446L65.5338 57.9276L65.8461 57.9057L66.0195 57.8936C66.8868 57.833 67.2214 57.1338 67.2214 57.1338L70.0415 52.0933ZM61.8788 48.5342C61.7507 46.7035 63.034 45.1119 64.7339 44.9931C66.4339 44.8742 67.9261 46.2716 68.0541 48.1024C68.1038 48.8122 67.9426 49.4993 67.6002 50.0864L67.445 50.3601L65.3688 54.072L62.7961 50.6851L62.6044 50.4357C62.1836 49.902 61.9284 49.244 61.8788 48.5342Z" fill="#E4E4E4"/>
</svg>
